<?xml version="1.0" standalone="no"?>
<!DOCTYPE svg PUBLIC "-//W3C//DTD SVG 20010904//EN"
 "http://www.w3.org/TR/2001/REC-SVG-20010904/DTD/svg10.dtd">
<svg version="1.0" xmlns="http://www.w3.org/2000/svg"
 width="800.000000pt" height="800.000000pt" viewBox="0 0 800.000000 800.000000"
 preserveAspectRatio="xMidYMid meet">
<metadata>
Created by potrace 1.14, written by Peter Selinger 2001-2017
</metadata>
<g transform="translate(0.000000,800.000000) scale(0.100000,-0.100000)"
fill="#000000" stroke="none">
<path d="M2916 6234 c-10 -7 -22 -11 -26 -9 -21 13 -190 -187 -190 -225 0 -6
-4 -10 -10 -10 -5 0 -10 -9 -10 -19 0 -11 -4 -21 -9 -23 -8 -3 -38 -52 -92
-153 -12 -22 -26 -43 -31 -46 -5 -3 -8 -8 -7 -10 2 -2 -15 -35 -38 -74 -22
-38 -50 -89 -63 -112 -13 -24 -27 -43 -32 -43 -4 0 -7 -3 -6 -7 3 -11 -39 -90
-52 -98 -6 -4 -8 -10 -6 -14 3 -4 -2 -17 -12 -28 -17 -19 -28 -38 -81 -138
-14 -27 -34 -59 -43 -69 -10 -11 -18 -25 -18 -32 0 -7 -6 -19 -13 -26 -7 -7
-20 -28 -28 -45 -7 -18 -16 -33 -20 -33 -3 0 -11 -16 -19 -35 -8 -19 -17 -35
-22 -35 -4 0 -8 -6 -8 -14 0 -7 -7 -19 -15 -26 -8 -7 -12 -16 -10 -21 3 -4 -1
-11 -9 -16 -8 -4 -16 -12 -17 -18 -5 -24 -23 -55 -32 -55 -6 0 -7 -3 -4 -7 4
-3 3 -11 -2 -17 -18 -22 -121 -206 -121 -216 0 -5 -4 -10 -8 -10 -4 0 -18 -19
-30 -42 -39 -75 -90 -163 -101 -175 -6 -7 -11 -17 -11 -22 0 -5 -6 -16 -12
-23 -7 -7 -20 -26 -28 -43 -8 -16 -21 -38 -29 -47 -8 -10 -11 -18 -7 -18 4 0
0 -7 -8 -16 -9 -8 -16 -22 -16 -30 0 -8 -4 -14 -8 -14 -5 0 -17 -18 -27 -40
-10 -22 -23 -40 -28 -40 -6 0 -8 -3 -4 -6 3 -4 -5 -23 -18 -43 -14 -19 -25
-41 -25 -48 0 -7 -3 -13 -7 -13 -5 0 -24 -31 -43 -68 -19 -37 -38 -69 -41 -72
-3 -3 -14 -21 -24 -40 -10 -19 -21 -37 -24 -40 -3 -3 -15 -23 -26 -45 -10 -22
-24 -47 -31 -55 -6 -8 -26 -42 -44 -75 -18 -33 -38 -63 -44 -67 -6 -4 -8 -8
-4 -8 9 0 -52 -103 -64 -108 -4 -2 -8 -11 -8 -20 0 -8 -6 -23 -14 -31 -7 -9
-24 -36 -37 -61 -13 -25 -26 -47 -29 -50 -8 -8 -37 -61 -57 -102 -10 -21 -21
-38 -25 -38 -5 0 -8 -7 -8 -15 0 -8 -5 -15 -11 -15 -5 0 -7 -4 -4 -10 3 -5 1
-10 -5 -10 -6 0 -8 -5 -5 -10 3 -5 1 -10 -4 -10 -6 0 -11 -7 -11 -15 0 -8 -5
-15 -11 -15 -5 0 -8 -4 -4 -9 3 -5 0 -13 -5 -16 -6 -4 -16 -17 -21 -28 -6 -12
-21 -40 -34 -62 -13 -22 -34 -58 -46 -80 -12 -22 -27 -43 -33 -47 -6 -4 -8 -8
-4 -8 4 0 -8 -25 -28 -56 -20 -31 -37 -62 -38 -70 -1 -7 -9 -21 -17 -31 -9
-10 -33 -49 -55 -87 -21 -38 -52 -92 -68 -120 -16 -28 -33 -54 -38 -57 -6 -3
-9 -9 -9 -13 1 -3 -12 -33 -29 -66 -17 -34 -28 -65 -25 -70 3 -4 0 -10 -5 -12
-6 -2 -13 -19 -16 -37 -3 -19 -9 -44 -14 -56 -5 -12 -4 -28 0 -35 5 -8 5 -19
1 -25 -13 -16 15 -97 43 -125 33 -33 56 -52 56 -46 0 3 15 -1 33 -9 27 -11
144 -14 625 -14 655 0 661 0 718 61 29 31 104 148 104 162 0 4 5 12 10 19 23
26 78 126 72 131 -3 3 -1 6 4 6 6 0 21 22 35 50 13 27 27 50 32 50 4 0 7 7 7
15 0 8 5 15 12 15 6 0 8 3 5 6 -4 4 2 19 12 33 10 14 22 36 25 49 4 12 12 22
17 22 5 0 9 5 9 11 0 6 9 24 21 40 11 16 17 29 13 29 -4 0 2 10 13 23 11 12
23 29 27 37 3 8 17 33 29 55 13 22 36 63 52 90 15 28 39 67 52 87 12 21 23 42
23 48 0 6 7 13 15 16 8 4 13 10 10 14 -3 4 4 19 15 32 11 14 16 28 13 32 -3 3
-1 6 5 6 7 0 12 5 12 11 0 6 9 24 21 40 11 16 17 29 12 29 -4 0 -3 4 3 8 12 8
94 150 94 163 0 5 4 9 10 9 5 0 12 11 16 25 3 14 10 25 16 25 5 0 6 5 3 10 -3
6 -1 10 4 10 6 0 11 7 11 15 0 8 5 15 11 15 5 0 7 5 4 10 -3 6 -1 10 4 10 6 0
11 6 11 13 0 7 11 28 25 47 13 18 22 36 20 40 -3 5 2 11 11 14 8 3 12 10 9 16
-3 5 -1 10 4 10 6 0 11 7 11 15 0 8 5 15 10 15 6 0 9 3 8 8 -3 12 24 62 34 62
4 0 8 9 8 20 0 11 4 20 8 20 10 0 37 50 34 63 -1 4 2 7 6 7 5 0 19 20 31 45
12 24 26 47 32 50 5 4 7 10 5 14 -3 4 2 17 12 27 9 10 23 30 29 44 7 14 26 48
42 75 52 87 62 105 54 105 -4 0 3 7 15 16 12 8 22 21 22 29 0 7 23 50 50 95
28 45 50 83 50 86 0 4 47 83 79 134 8 14 16 27 16 30 0 3 10 19 21 35 12 17
22 34 21 39 0 4 5 15 12 25 23 32 101 174 107 195 4 11 9 23 13 26 10 8 48 91
66 145 22 61 25 213 6 270 -17 52 -69 155 -89 178 -8 9 -11 17 -6 17 5 0 4 4
-1 8 -6 4 -16 18 -23 32 -7 14 -25 46 -41 72 -16 25 -27 49 -24 52 4 3 2 6 -4
6 -5 0 -20 21 -33 48 -13 26 -26 49 -29 52 -3 3 -19 30 -35 60 -27 52 -41 78
-107 195 -16 28 -34 62 -40 78 -6 15 -15 27 -20 27 -5 0 -8 3 -7 8 2 8 -24 65
-33 72 -7 6 -45 79 -49 95 -5 18 -100 105 -115 105 -23 0 -29 1 -45 10 -9 5
-23 3 -34 -6z m74 -803 c0 -8 3 -11 6 -8 4 4 17 -12 29 -36 12 -23 37 -71 56
-107 18 -36 32 -68 31 -72 -1 -5 3 -8 9 -8 5 0 15 -13 20 -29 6 -16 17 -32 25
-35 9 -3 12 -10 9 -16 -3 -5 -1 -10 6 -10 7 0 10 -3 7 -6 -4 -3 0 -21 8 -39 9
-23 10 -36 3 -40 -6 -4 -6 -11 -1 -18 5 -7 8 -20 6 -29 -7 -32 -12 -53 -14
-53 -1 0 -3 -10 -6 -23 -2 -13 -11 -30 -19 -38 -8 -9 -15 -22 -15 -30 0 -8 -4
-14 -10 -14 -5 0 -10 -5 -10 -11 0 -6 -9 -24 -21 -40 -11 -16 -18 -29 -14 -29
3 0 -3 -10 -14 -22 -11 -11 -18 -25 -15 -30 3 -4 1 -8 -4 -8 -9 0 -30 -39 -28
-53 0 -5 -7 -13 -16 -18 -10 -6 -18 -14 -18 -20 0 -5 -31 -63 -70 -129 -38
-66 -66 -120 -62 -120 4 0 -1 -5 -10 -11 -10 -5 -18 -14 -18 -19 0 -5 -13 -31
-29 -59 -16 -27 -27 -52 -24 -55 4 -3 1 -6 -6 -6 -7 0 -17 -13 -22 -30 -6 -16
-15 -30 -21 -30 -5 0 -6 -4 -3 -10 3 -5 2 -10 -3 -10 -6 0 -15 -13 -21 -30 -5
-16 -15 -30 -20 -30 -6 0 -10 -3 -9 -7 4 -14 -13 -53 -23 -53 -5 0 -9 -5 -9
-10 0 -11 -111 -207 -142 -252 -11 -16 -16 -28 -11 -28 4 0 3 -4 -3 -8 -6 -4
-26 -34 -44 -67 -18 -33 -38 -63 -44 -67 -6 -4 -8 -8 -4 -8 4 0 -7 -24 -25
-52 -19 -29 -37 -60 -40 -68 -4 -8 -15 -28 -26 -45 -10 -16 -28 -48 -41 -70
-83 -147 -115 -201 -123 -206 -5 -3 -7 -9 -5 -12 1 -4 -5 -15 -14 -26 -9 -11
-14 -22 -11 -25 4 -3 1 -6 -6 -6 -7 0 -10 -4 -7 -9 3 -5 -1 -14 -9 -21 -8 -7
-15 -19 -15 -26 0 -8 -5 -14 -11 -14 -5 0 -8 -4 -4 -9 3 -5 1 -12 -4 -16 -6
-3 -29 -40 -52 -83 -23 -42 -51 -89 -61 -104 -11 -16 -17 -28 -14 -28 3 0 -9
-24 -27 -52 -19 -29 -47 -78 -63 -108 -16 -30 -32 -56 -36 -58 -5 -2 -8 -10
-8 -18 0 -8 -5 -14 -12 -14 -6 0 -9 -3 -5 -6 7 -7 -15 -54 -35 -76 -7 -7 -22
-30 -32 -50 -11 -20 -24 -35 -28 -32 -4 3 -8 -1 -8 -8 -1 -16 -75 -73 -122
-93 -20 -8 -59 -17 -86 -21 -79 -9 -242 -10 -242 0 0 5 -7 3 -15 -4 -8 -7 -15
-8 -15 -4 0 5 -16 9 -35 8 -19 -1 -35 2 -35 7 0 5 -7 9 -15 9 -8 0 -21 15 -28
32 -16 38 -20 98 -7 98 5 0 7 7 3 16 -7 18 16 94 29 94 5 0 7 4 4 9 -3 5 1 14
9 21 8 7 15 19 15 26 0 8 5 14 12 14 6 0 9 3 5 6 -3 4 6 25 21 48 16 22 39 62
52 89 14 26 28 47 32 47 5 0 8 6 8 14 0 7 9 25 21 40 11 14 17 26 12 26 -4 0
1 7 11 15 11 8 17 15 13 15 -4 0 8 25 28 55 19 31 35 59 35 64 0 4 9 20 20 33
10 14 16 28 13 32 -3 3 -2 6 4 6 6 0 16 14 23 31 7 17 18 36 24 42 6 7 24 38
41 70 16 31 32 57 36 57 4 0 10 14 14 30 4 17 10 30 14 30 4 0 15 15 24 33 9
17 33 59 52 92 20 33 39 68 42 78 3 9 9 17 14 17 5 0 9 6 9 14 0 7 7 19 15 26
9 7 13 15 10 18 -3 3 1 12 9 21 7 9 27 41 43 71 64 116 127 225 134 230 3 3 9
15 13 28 4 12 12 22 17 22 6 0 7 5 4 10 -3 6 -2 10 3 10 4 0 14 16 22 35 8 19
16 35 20 35 3 0 16 23 29 50 13 28 28 50 32 50 5 0 9 9 9 19 0 11 4 21 8 23 8
3 19 21 88 146 15 26 33 55 42 65 8 9 11 17 7 17 -4 0 0 9 10 20 10 11 14 20
10 20 -5 0 0 7 11 15 10 8 15 15 9 15 -7 0 -7 3 0 8 14 10 33 41 46 75 6 15
15 27 20 27 5 0 9 7 9 16 0 8 10 30 23 47 13 18 32 49 42 70 11 20 23 37 26
37 4 0 10 14 14 30 4 17 10 30 15 30 4 0 10 8 14 18 3 9 15 31 25 47 11 17 29
47 40 67 35 65 46 83 51 88 3 3 13 21 24 40 28 52 54 98 72 126 9 13 14 24 10
24 -3 0 3 9 14 20 12 12 18 25 15 29 -2 5 2 12 11 15 9 4 14 9 11 12 -3 4 -2
11 4 18 20 24 58 86 53 86 -5 0 23 42 53 79 2 3 22 7 46 11 45 6 86 -12 87
-39z"/>
<path d="M5190 6239 c0 -6 -4 -8 -9 -5 -14 9 -101 -64 -101 -84 0 -5 -4 -10
-9 -10 -5 0 -11 -8 -14 -17 -8 -24 -40 -76 -52 -85 -5 -4 -6 -8 -2 -8 5 0 -1
-13 -12 -29 -12 -16 -21 -31 -21 -34 0 -2 -25 -47 -55 -100 -30 -52 -55 -100
-55 -106 0 -6 -4 -11 -10 -11 -5 0 -12 -11 -16 -25 -3 -14 -10 -25 -16 -25 -5
0 -6 -4 -3 -10 3 -5 2 -10 -3 -10 -4 0 -18 -22 -30 -50 -12 -27 -27 -50 -34
-50 -6 0 -8 -3 -5 -6 4 -4 -2 -19 -13 -34 -11 -15 -17 -30 -13 -34 3 -3 2 -6
-3 -6 -6 0 -16 -16 -24 -35 -8 -19 -17 -35 -22 -35 -4 0 -8 -6 -8 -14 0 -7
-10 -26 -22 -42 -13 -16 -23 -31 -22 -34 1 -3 -9 -21 -21 -40 -36 -58 -85
-166 -85 -189 0 -12 -3 -21 -7 -21 -17 0 -2 -195 18 -232 5 -10 8 -18 5 -18
-3 0 2 -17 10 -37 35 -86 58 -133 65 -133 4 0 10 -13 14 -30 4 -16 10 -30 14
-30 4 0 18 -22 32 -50 13 -27 28 -50 32 -50 5 0 5 -4 2 -10 -3 -5 -2 -10 3
-10 5 0 12 -8 15 -17 8 -24 40 -76 52 -85 6 -4 6 -8 2 -8 -5 0 -1 -7 7 -16 9
-8 16 -22 16 -30 0 -8 5 -14 10 -14 6 0 10 -6 10 -14 0 -8 8 -22 18 -32 9 -10
16 -19 14 -21 -1 -2 13 -31 33 -64 19 -33 35 -64 35 -70 0 -5 4 -9 9 -9 5 0
14 -12 20 -27 16 -38 44 -87 54 -91 4 -2 5 -8 1 -13 -3 -5 -1 -9 4 -9 6 0 15
-12 21 -27 6 -16 36 -70 66 -122 30 -51 55 -98 55 -102 0 -5 4 -9 9 -9 5 0 13
-10 17 -22 3 -13 13 -31 22 -40 8 -10 12 -18 9 -18 -4 0 1 -9 11 -20 9 -12 16
-23 14 -26 -1 -2 2 -10 8 -17 20 -23 79 -127 72 -127 -4 0 -2 -4 4 -8 6 -4 21
-26 33 -49 11 -23 25 -45 31 -48 6 -4 8 -11 5 -16 -4 -5 -2 -9 3 -9 5 0 12 -8
15 -17 4 -10 20 -40 37 -68 17 -27 38 -66 48 -85 9 -19 24 -43 32 -53 8 -10
13 -20 12 -24 -2 -3 1 -9 6 -12 6 -3 12 -13 14 -21 3 -14 7 -20 35 -54 6 -7 9
-17 6 -20 -4 -3 -1 -6 6 -6 7 0 9 -4 6 -10 -3 -5 -2 -10 3 -10 5 0 12 -8 15
-17 4 -10 18 -38 33 -63 15 -25 41 -70 57 -100 17 -30 33 -57 37 -60 9 -7 24
-43 22 -52 -1 -5 1 -8 6 -8 4 0 16 -17 27 -37 11 -21 22 -40 25 -43 5 -5 16
-23 51 -88 11 -20 31 -55 45 -77 13 -22 28 -50 34 -62 5 -11 14 -24 20 -28 5
-3 8 -11 5 -16 -4 -5 -2 -9 2 -9 5 0 20 -22 34 -50 13 -27 27 -50 32 -50 4 0
7 -5 7 -10 0 -6 11 -28 25 -50 14 -22 22 -40 19 -40 -4 0 3 -9 15 -19 12 -11
22 -21 21 -23 -2 -4 23 -60 32 -73 5 -5 25 -36 45 -67 21 -31 56 -69 78 -85
l40 -28 600 -3 c404 -1 611 1 635 9 19 5 40 12 45 13 46 13 95 55 95 82 0 7 4
14 8 14 7 0 10 26 13 115 0 16 -11 79 -18 95 -3 8 -8 23 -10 33 -1 10 -17 44
-35 75 -17 31 -38 68 -46 82 -7 14 -31 54 -53 90 -21 36 -47 81 -57 100 -9 19
-20 37 -24 38 -5 2 -8 10 -8 18 0 8 -4 14 -8 14 -5 0 -14 16 -22 35 -8 19 -17
35 -21 35 -4 0 -10 11 -13 25 -4 14 -11 25 -16 25 -6 0 -10 9 -10 20 0 11 -4
20 -8 20 -5 0 -19 20 -31 45 -12 24 -26 47 -32 50 -5 4 -7 11 -4 16 4 5 2 9
-3 9 -5 0 -12 8 -16 18 -7 20 -39 76 -55 95 -6 8 -8 17 -4 20 3 4 2 7 -4 7 -6
0 -16 13 -23 30 -7 17 -17 30 -22 30 -5 0 -6 4 -3 10 3 6 1 10 -6 10 -7 0 -9
3 -6 6 4 4 -2 19 -13 34 -11 16 -20 33 -20 38 0 6 -4 12 -8 14 -9 4 -102 167
-102 179 0 5 -4 9 -9 9 -5 0 -13 10 -17 23 -3 12 -13 30 -22 40 -8 9 -12 17
-8 17 4 0 -2 10 -13 22 -11 11 -18 25 -15 30 3 4 1 8 -3 8 -5 0 -27 34 -48 75
-22 41 -43 75 -47 75 -5 0 -8 9 -8 19 0 11 -4 21 -8 23 -5 2 -32 46 -62 98
-29 52 -62 107 -72 123 -11 15 -16 27 -11 27 4 0 -1 7 -11 15 -11 8 -16 15
-11 15 4 0 2 8 -6 18 -8 9 -21 31 -29 47 -8 17 -21 36 -27 43 -7 7 -13 20 -13
28 0 8 -4 14 -9 14 -5 0 -16 17 -25 38 -9 20 -25 51 -36 67 -11 17 -30 48 -42
70 -12 22 -27 48 -33 57 -5 9 -23 41 -39 70 -16 29 -32 55 -35 58 -4 3 -13 20
-20 38 -8 17 -16 32 -20 32 -3 0 -12 15 -20 33 -8 17 -19 38 -25 46 -12 14
-77 129 -98 171 -7 14 -15 27 -19 30 -3 3 -9 12 -12 20 -4 8 -21 38 -37 65
-17 28 -33 58 -36 68 -4 9 -9 17 -13 17 -3 0 -12 15 -20 33 -8 17 -24 46 -35
62 -12 17 -21 32 -21 35 -1 11 -67 120 -76 126 -5 3 -7 10 -4 15 4 5 1 9 -4 9
-6 0 -11 10 -11 22 0 12 -3 19 -6 15 -3 -3 -17 15 -31 41 -14 26 -28 49 -32
52 -3 3 -7 11 -9 18 -1 7 -14 32 -29 55 -29 44 -44 70 -75 127 -10 19 -30 53
-43 75 -14 22 -33 57 -42 78 -10 20 -21 37 -25 37 -5 0 -8 5 -8 10 0 6 -12 29
-27 53 -14 23 -25 42 -23 42 2 0 -5 10 -15 23 -11 12 -20 26 -20 31 0 4 -17
33 -37 65 -20 31 -31 54 -25 50 7 -3 5 0 -3 8 -8 7 -24 26 -34 43 -21 33 -28
41 -69 86 -25 27 -97 67 -97 54 0 -2 -11 0 -25 5 -17 6 -25 6 -25 -1z m80
-768 c14 -1 27 -6 30 -11 3 -4 15 -20 27 -36 33 -41 64 -92 93 -146 14 -27 28
-48 32 -48 5 0 8 -9 8 -20 0 -11 4 -20 9 -20 5 0 13 -10 17 -22 3 -12 22 -45
41 -75 18 -29 37 -61 40 -71 4 -9 20 -36 35 -58 15 -23 28 -45 28 -48 0 -4 11
-24 24 -45 14 -21 22 -42 19 -45 -4 -3 -2 -6 4 -6 6 0 20 -17 31 -37 10 -21
29 -55 41 -75 51 -91 65 -115 82 -143 17 -29 36 -62 112 -192 20 -35 33 -63
29 -63 -4 0 1 -5 11 -11 9 -6 15 -14 12 -20 -4 -5 -1 -9 4 -9 6 0 11 -4 11 -8
0 -5 22 -46 50 -93 27 -46 49 -86 47 -89 -1 -3 8 -16 20 -29 12 -13 20 -28 17
-33 -3 -4 -1 -8 4 -8 5 0 15 -14 22 -31 7 -17 18 -36 24 -42 10 -11 43 -69 70
-124 6 -13 14 -23 19 -23 4 0 7 -9 7 -20 0 -11 3 -20 8 -20 8 0 23 -26 42 -72
7 -16 16 -28 20 -28 4 0 15 -17 24 -37 23 -51 49 -96 61 -105 6 -4 6 -8 2 -8
-4 0 1 -10 12 -22 11 -11 18 -25 15 -30 -3 -4 -1 -8 4 -8 5 0 12 -8 16 -17 3
-10 19 -40 36 -68 17 -27 33 -58 36 -67 4 -10 9 -18 13 -18 4 0 13 -16 21 -35
8 -19 17 -35 20 -35 3 0 12 -16 20 -35 8 -19 17 -35 21 -35 4 0 9 -8 13 -17 3
-10 14 -31 23 -48 10 -16 34 -57 52 -90 19 -33 39 -63 45 -67 6 -4 7 -8 3 -8
-5 0 1 -13 12 -29 12 -16 21 -34 21 -40 0 -6 5 -11 10 -11 6 0 10 -7 10 -15 0
-8 5 -15 11 -15 5 0 8 -4 5 -9 -3 -5 1 -14 9 -21 8 -7 15 -16 15 -21 0 -5 18
-38 40 -74 22 -36 40 -70 40 -75 0 -6 4 -10 9 -10 5 0 12 -11 15 -25 4 -14 11
-25 16 -25 6 0 10 -9 10 -20 0 -11 4 -20 8 -20 7 0 40 -64 42 -82 1 -4 7 -22
14 -40 17 -41 13 -98 -8 -131 -19 -29 -34 -36 -89 -44 -52 -7 -307 -9 -307 -3
0 3 -12 5 -27 4 -15 0 -45 9 -67 20 -43 23 -126 98 -126 114 0 6 -6 17 -12 24
-7 8 -21 29 -32 48 -37 68 -97 175 -106 190 -35 55 -100 172 -100 180 0 6 -4
10 -8 10 -5 0 -14 16 -22 35 -8 19 -17 35 -21 35 -3 0 -13 15 -20 33 -7 17
-19 38 -26 45 -7 7 -13 20 -13 28 0 8 -5 14 -11 14 -5 0 -7 5 -4 10 3 5 1 10
-4 10 -6 0 -11 4 -11 9 0 5 -17 38 -38 72 -21 35 -49 84 -63 109 -13 25 -27
47 -30 50 -3 3 -12 20 -20 38 -8 17 -17 32 -21 32 -5 0 -8 4 -8 9 0 5 -20 44
-45 85 -25 42 -45 81 -45 86 0 6 -3 10 -7 10 -5 0 -17 18 -27 40 -11 22 -23
40 -28 40 -5 0 -7 4 -3 9 3 5 1 12 -4 15 -4 3 -21 30 -36 61 -16 30 -32 55
-37 55 -4 0 -7 3 -6 8 2 7 -22 54 -49 97 -7 11 -16 28 -19 38 -3 9 -11 17 -17
17 -6 0 -7 3 -4 6 4 4 -2 19 -13 34 -11 16 -20 33 -20 39 0 6 -4 11 -10 11 -5
0 -10 5 -10 11 0 6 -9 24 -21 40 -11 16 -17 29 -12 29 4 0 3 4 -2 8 -6 4 -16
18 -23 32 -7 14 -25 46 -41 72 -16 25 -27 49 -24 52 4 3 2 6 -3 6 -5 0 -21 21
-34 48 -14 26 -27 49 -30 52 -3 3 -12 14 -20 24 -13 18 -13 19 0 11 8 -5 3 5
-12 23 -15 17 -30 41 -33 52 -4 11 -22 44 -41 73 -19 29 -37 62 -40 75 -4 12
-10 22 -15 22 -5 0 -9 7 -9 15 0 8 -4 15 -9 15 -5 0 -11 8 -15 18 -6 20 -50
98 -89 159 -15 23 -28 48 -29 55 -2 7 -9 19 -16 26 -7 8 -10 18 -7 23 4 5 2 9
-3 9 -5 0 -10 10 -11 23 -3 51 -6 72 -12 77 -9 7 28 120 46 140 8 9 12 20 8
25 -5 4 -3 5 3 2 10 -6 29 20 24 32 -1 2 2 7 7 10 5 3 22 33 38 66 36 74 82
144 109 167 12 10 26 22 31 26 6 5 12 7 15 3 3 -3 16 -8 30 -10z"/>
<path d="M4020 4178 c-22 -11 -55 -36 -75 -56 -34 -36 -128 -184 -146 -229 -5
-13 -13 -23 -19 -23 -6 0 -9 -4 -6 -8 3 -5 -4 -19 -15 -30 -11 -12 -17 -22
-14 -22 4 0 -3 -13 -14 -29 -12 -16 -21 -32 -21 -37 0 -4 -10 -21 -23 -38 -13
-17 -30 -46 -38 -63 -8 -18 -17 -33 -21 -33 -5 0 -8 -6 -8 -14 0 -7 -7 -19
-15 -26 -9 -7 -13 -15 -10 -18 3 -3 -5 -19 -18 -36 -12 -17 -33 -51 -46 -76
-14 -25 -33 -56 -43 -69 -10 -13 -18 -30 -18 -37 0 -8 -4 -14 -10 -14 -5 0
-10 -5 -10 -10 0 -6 -12 -29 -27 -53 -15 -23 -27 -45 -28 -49 0 -4 -7 -15 -15
-25 -8 -10 -22 -32 -30 -48 -8 -17 -21 -36 -27 -43 -7 -7 -13 -19 -13 -26 0
-8 -7 -19 -15 -26 -8 -7 -13 -16 -10 -20 3 -5 2 -10 -3 -12 -9 -4 -132 -208
-132 -220 0 -4 -5 -8 -11 -8 -5 0 -7 -4 -4 -10 3 -5 1 -10 -4 -10 -6 0 -11 -6
-11 -14 0 -7 -7 -19 -15 -26 -8 -7 -12 -16 -9 -21 3 -5 0 -9 -5 -9 -6 0 -11
-7 -11 -15 0 -9 -6 -18 -13 -21 -8 -3 -14 -10 -15 -17 0 -7 -9 -41 -20 -77
-21 -72 -23 -186 -3 -234 12 -30 51 -84 51 -71 0 5 9 0 21 -11 12 -10 22 -18
23 -16 0 2 12 1 26 -3 38 -9 750 -11 750 -2 0 4 9 3 19 -3 12 -6 22 -6 25 -1
3 5 21 5 41 1 22 -5 35 -4 35 2 0 7 4 7 13 0 7 -6 19 -7 26 -3 7 5 28 5 47 1
20 -5 34 -4 34 1 0 6 8 5 19 -1 12 -6 22 -6 25 -1 3 5 21 5 41 1 22 -5 35 -4
35 2 0 7 4 7 13 0 7 -6 19 -7 26 -3 7 5 28 5 47 1 20 -5 34 -4 34 1 0 6 8 5
19 -1 11 -5 22 -6 25 -2 3 5 30 5 60 2 31 -3 56 -2 56 2 0 5 9 4 19 -2 12 -6
22 -6 25 -1 3 5 21 5 41 1 22 -5 35 -4 35 2 0 7 4 7 13 0 7 -6 19 -7 26 -3 7
5 28 5 47 1 20 -5 34 -4 34 1 0 6 8 6 19 0 10 -6 21 -8 24 -5 2 3 41 7 85 8
43 2 86 7 93 12 8 5 19 9 24 9 37 1 122 76 131 115 0 3 4 13 9 23 14 32 -2
136 -32 207 -3 8 -7 17 -8 20 -3 15 -59 126 -65 130 -4 3 -9 12 -13 20 -4 8
-18 33 -32 55 -14 22 -28 47 -32 55 -3 8 -15 27 -25 43 -11 15 -16 27 -11 27
4 0 3 4 -3 8 -7 4 -21 23 -32 42 -10 19 -43 76 -72 125 -29 50 -64 110 -78
135 -14 25 -36 62 -49 82 -12 21 -23 41 -23 46 0 4 -9 18 -20 30 -12 12 -18
22 -15 22 3 0 -6 18 -20 40 -14 22 -25 44 -25 50 0 5 -3 10 -8 10 -4 0 -15 18
-25 40 -9 22 -21 40 -27 40 -5 0 -9 4 -8 8 2 4 -19 46 -47 92 -78 133 -95 164
-102 183 -3 9 -9 17 -13 17 -5 0 -19 23 -31 50 -12 28 -26 50 -29 50 -6 0 -26
37 -33 60 -5 14 -90 94 -114 107 -42 23 -109 23 -153 1z m95 -713 c22 -22 59
-76 60 -87 0 -3 11 -19 25 -35 13 -15 23 -30 22 -33 -4 -10 10 -40 19 -40 5 0
9 -7 9 -15 0 -8 4 -15 8 -15 4 0 13 -12 20 -27 6 -16 23 -46 37 -68 14 -22 35
-58 47 -80 12 -22 28 -49 35 -60 7 -11 17 -31 23 -45 6 -13 14 -27 18 -30 13
-9 72 -127 72 -144 0 -9 4 -16 8 -16 5 0 7 -13 4 -30 -2 -16 -8 -30 -13 -30
-5 0 -9 -7 -9 -15 0 -8 -7 -15 -15 -15 -8 0 -15 -4 -15 -8 0 -5 -6 -10 -12
-11 -75 -11 -307 -16 -316 -6 -3 2 -11 0 -19 -6 -10 -9 -13 -8 -13 1 0 9 -3
10 -13 1 -8 -6 -17 -8 -21 -4 -11 11 -99 11 -113 0 -9 -6 -13 -5 -13 3 0 9 -3
10 -13 1 -8 -6 -16 -9 -19 -6 -3 3 -45 7 -94 10 -111 5 -117 6 -153 32 -26 20
-45 65 -33 78 4 3 8 18 10 33 2 15 7 29 13 30 5 2 9 10 9 18 0 8 11 32 25 54
14 22 25 44 25 49 0 6 7 14 16 19 9 5 15 12 15 15 -3 18 0 27 12 39 6 7 23 35
36 61 13 26 28 47 33 47 5 0 6 5 3 10 -3 6 -1 10 4 10 6 0 11 7 11 17 0 9 11
31 25 48 13 18 21 35 18 39 -4 3 -1 6 5 6 7 0 12 5 12 10 0 6 12 29 27 53 15
23 26 45 25 50 -1 4 3 7 8 7 6 0 10 7 10 15 0 8 5 15 10 15 6 0 10 7 10 15 0
8 5 15 10 15 6 0 10 5 10 11 0 17 32 38 55 36 11 -1 29 -11 40 -22z"/>
</g>
</svg>
